<svg
	xmlns="http://www.w3.org/2000/svg"
	viewBox="0 0 34 48"
	width="34"
	height="48">
    <path
       d="m 17.002504,-9.0513677e-4 c -9.3985699,0 -16.99999992,7.51278003677 -16.99999992,16.80078013677 0,12.6 16.99999992,31.19922 16.99999992,31.19922 0,0 17,-18.59922 17,-31.19922 0,-9.2880001 -7.60143,-16.80078013677 -17,-16.80078013677 z M 16.225164,5.5401149 h 1.56445 c 0.8645,0 1.566889,0.6999601 1.56641,1.56445 v 7.0449201 h 7.04492 c 0.86448,0 1.56641,0.70193 1.56641,1.56641 v 1.56445 c 0,0.8645 -0.70193,1.56641 -1.56641,1.56641 h -7.04492 v 7.04492 c 0,0.86448 -0.70191,1.5664 -1.56641,1.5664 h -1.56445 c -0.86448,0 -1.56641,-0.70192 -1.56641,-1.5664 v -7.04492 H 7.6138341 c -0.86449,0 -1.56445,-0.70191 -1.56445,-1.56641 v -1.56445 c 0,-0.86448 0.69996,-1.56641 1.56445,-1.56641 H 14.658754 V 7.1045649 c 0,-0.86449 0.70193,-1.56445 1.56641,-1.56445 z"
       fill="#4caf50" />
</svg>
